<?xml version="1.0" encoding="UTF-8"?>
<svg width="32px" height="32px" viewBox="0 0 32 32" version="1.1" xmlns="http://www.w3.org/2000/svg" xmlns:xlink="http://www.w3.org/1999/xlink">
    <defs>
        <linearGradient x1="50%" y1="0%" x2="50%" y2="100%" id="linearGradient-1">
            <stop stop-color="#679CF6" offset="0%"></stop>
            <stop stop-color="#4072EE" offset="100%"></stop>
        </linearGradient>
        <circle id="path-2" cx="16" cy="16" r="16"></circle>
        <linearGradient x1="50%" y1="1.90686602%" x2="50%" y2="96.6316639%" id="linearGradient-4">
            <stop stop-color="#FFF6F2" offset="0%"></stop>
            <stop stop-color="#FFC18F" offset="100%"></stop>
        </linearGradient>
        <linearGradient x1="50%" y1="0%" x2="50%" y2="98.8890896%" id="linearGradient-5">
            <stop stop-color="#FFF6F2" offset="1.92828757%"></stop>
            <stop stop-color="#FFC18F" offset="97.7172146%"></stop>
        </linearGradient>
        <linearGradient x1="56.4968718%" y1="27.4806893%" x2="35.8695253%" y2="95.7773122%" id="linearGradient-6">
            <stop stop-color="#FFF2F2" offset="0%"></stop>
            <stop stop-color="#FFF2F2" offset="0.0309881491%"></stop>
            <stop stop-color="#FFE2C9" offset="100%"></stop>
        </linearGradient>
        <linearGradient x1="57.5529419%" y1="27.4806893%" x2="33.5726089%" y2="95.7773122%" id="linearGradient-7">
            <stop stop-color="#FFF2F2" offset="0%"></stop>
            <stop stop-color="#FFF2F2" offset="0.0309881491%"></stop>
            <stop stop-color="#FFE2C9" offset="100%"></stop>
        </linearGradient>
        <linearGradient x1="47.4157587%" y1="29.5048957%" x2="50%" y2="98.8507045%" id="linearGradient-8">
            <stop stop-color="#FFEAEA" offset="0%"></stop>
            <stop stop-color="#FAC79D" offset="100%"></stop>
        </linearGradient>
        <linearGradient x1="27.1464257%" y1="19.9850852%" x2="64.149417%" y2="42.4005972%" id="linearGradient-9">
            <stop stop-color="#4B261A" offset="0%"></stop>
            <stop stop-color="#4B261A" offset="100%"></stop>
        </linearGradient>
    </defs>
    <g id="后台积分排名大屏设计" stroke="none" stroke-width="1" fill="none" fill-rule="evenodd">
        <g id="积分排行-侧边栏选择" transform="translate(-1067, -16)">
            <g id="导航头像-女" transform="translate(1067, 16)">
                <mask id="mask-3" fill="white">
                    <use xlink:href="#path-2"></use>
                </mask>
                <circle stroke="url(#linearGradient-1)" stroke-width="0.64" cx="16" cy="16" r="15.68"></circle>
                <g id="编组备份-2" mask="url(#mask-3)">
                    <g transform="translate(6.5172, 3.379)" id="分组-24">
                        <path d="M10.0753703,21.9839421 C12.1911973,21.9839421 15.174135,21.2858684 16.8309259,20.4906088 C18.016111,19.9217199 18.7983333,19.0091273 19.1775925,17.752831 C18.6324073,17.3972754 18.2294444,16.8402384 17.9687036,16.0817199 C17.5286693,14.80162 17.7198147,9.47438492 17.7198147,7.79727544 C17.7198147,4.52027027 16.3685778,1.91067865 14.0931481,0.686164328 C12.8507342,0.0175637705 11.2131481,-0.167169005 9.82648141,0.152830995 C8.22648141,-0.202724561 5.22673262,0.229710442 3.53314807,2.99727544 C2.0753703,5.37949766 2.0753703,9.37696998 2.0753703,11.5306088 C2.0753703,12.5729758 2.29936963,14.0906125 2.0753703,15.3350532 C1.86203696,16.5202384 1.49462955,17.2906088 0.973148073,17.6461643 C1.55593364,19.1201813 2.35000772,20.0683295 3.3553703,20.4906088 C5.47163696,21.3794977 7.95954332,21.9839421 10.0753703,21.9839421 Z" id="头发" fill="#3A2017"></path>
                        <ellipse id="椭圆形" fill="url(#linearGradient-4)" cx="3.62991611" cy="11.4233663" rx="2.01590484" ry="1.74143881"></ellipse>
                        <g id="头像" transform="translate(0, 0.0881)">
                            <ellipse id="椭圆形-copy" fill="url(#linearGradient-5)" cx="15.7253452" cy="11.3352571" rx="2.01590484" ry="1.74143881"></ellipse>
                            <path d="M3.02514466,11.1417639 C3.17962485,10.7547775 3.51560899,10.5612843 4.03309708,10.5612843" id="路径-7" stroke="#FAC79D" stroke-width="0.383711328" stroke-linecap="round" stroke-linejoin="round"></path>
                            <path d="M15.9269357,10.5612843 C16.3983236,10.6373226 16.6671109,10.8308158 16.7332976,11.1417639" id="路径-8" stroke="#FAC79D" stroke-width="0.383711328" stroke-linecap="round" stroke-linejoin="round"></path>
                            <ellipse id="合并形状" fill="#B4239A" cx="9.77842589" cy="25.5699069" rx="9.77842589" ry="6.68841499"></ellipse>
                            <rect id="矩形" stroke="#E49A5D" stroke-width="0.383711328" fill="url(#linearGradient-6)" x="8.25676244" y="16.1709496" width="3.24491739" height="4.4536187" rx="1.6224587"></rect>
                            <rect id="矩形" stroke="url(#linearGradient-8)" stroke-width="0.383711328" fill="url(#linearGradient-7)" x="4.02336226" y="3.98087793" width="11.5101273" height="14.321772" rx="5.75506363"></rect>
                            <path d="M7.76425918,9.30916621 C8.37460356,9.20145838 9.61314807,8.66916621 10.5731481,7.9580551 C11.3358584,7.39308448 12.1180806,6.27901041 12.9198147,4.61583288 C13.0383333,5.89583288 13.1805555,6.79657362 13.3464814,7.3180551 C13.5953703,8.10027732 13.9952265,8.80235082 14.4842592,9.45138843 C14.810281,9.88408017 15.2442954,10.2523348 15.7863022,10.5561522 C15.4378495,9.89754288 15.1934647,9.39891791 15.0531481,9.06027732 C14.9128314,8.72163673 14.8180166,8.40163673 14.7687036,8.10027732 C14.9994123,8.63929306 15.2483012,9.12521898 15.5153703,9.5580551 C15.7824394,9.99089121 16.1735505,10.5834838 16.6887036,11.3358329 C16.8546296,10.6287207 16.9375925,9.71612809 16.9375925,8.5980551 C16.9375925,5.32104993 16.2263556,2.14256942 13.9509259,0.918055097 C12.708512,0.24945454 10.9642592,-0.106101016 9.90566574,0.0647217639 C7.8299132,-0.290833792 5.31092585,0.811388431 4.13759252,3.54916621 C3.05679031,6.07103803 3.0353703,8.71997186 3.0353703,10.8736107 C3.0353703,11.568522 3.14203696,11.8648183 3.3553703,11.7624995 L4.99092585,10.3047218 L9.61314807,6.85583288 C9.266664,7.50886694 8.98221955,7.98294102 8.75981474,8.2780551 C8.42620752,8.72072622 7.46793689,9.36145838 7.76425918,9.30916621 Z" id="头发" fill="url(#linearGradient-9)"></path>
                            <rect id="矩形" stroke="#606060" stroke-width="0.383711328" x="4.42654323" y="9.20519436" width="4.4544603" height="2.51868669" rx="1.24706182"></rect>
                            <rect id="矩形-copy-6" stroke="#606060" stroke-width="0.383711328" x="10.6758482" y="9.20519436" width="4.4544603" height="2.51868669" rx="1.24706182"></rect>
                            <ellipse id="椭圆形" fill="#301F13" cx="6.55297814" cy="10.3677911" rx="1" ry="1"></ellipse>
                            <ellipse id="椭圆形-copy-2" fill="#301F13" cx="13.0038736" cy="10.3677911" rx="1" ry="1"></ellipse>
                            <path d="M8.87126871,12.6897095 C9.40694479,13.2056914 10.0117162,13.2056914 10.6855831,12.6897095" id="路径-3" stroke="#FBB983" stroke-width="0.383711328" stroke-linecap="round" stroke-linejoin="round"></path>
                            <path d="M7.6617258,15.0116279 C8.97578037,15.5276098 10.2525201,15.5276098 11.491945,15.0116279" id="路径-4" stroke="#E99C5C" stroke-width="0.383711328" stroke-linecap="round" stroke-linejoin="round"></path>
                            <line x1="9.27444968" y1="16.0758405" x2="10.2824021" y2="16.0758405" id="路径-5" stroke="#FBB983" stroke-width="0.383711328" stroke-linecap="round" stroke-linejoin="round"></line>
                            <path d="M5.64582096,8.4328591 C6.47869613,8.17486816 7.21786124,8.17486816 7.86331629,8.4328591" id="路径-6" stroke="#301F13" stroke-width="0.383711328" stroke-linecap="round" stroke-linejoin="round"></path>
                            <path d="M11.895126,8.4328591 C12.7280011,8.17486816 13.4671663,8.17486816 14.1126213,8.4328591" id="路径-6-copy" stroke="#301F13" stroke-width="0.383711328" stroke-linecap="round" stroke-linejoin="round"></path>
                            <line x1="9.07285919" y1="10.2710445" x2="10.7737789" y2="10.2710445" id="直线-2" stroke="#7E8AB7" stroke-width="0.276848" stroke-linecap="square"></line>
                            <polygon id="路径-13" fill="#FFFFFF" points="7.46013532 21.7338882 8.71536848 25.0732744 10.3620194 25.0732744 11.6935355 21.7338882 9.41504941 20.816424"></polygon>
                            <path d="M7.93924759,18.9989307 L9.39701059,20.434206 C9.535561,20.5706191 9.75424605,20.5818388 9.90602972,20.4603215 L11.7666859,18.9706878 C11.874729,18.8841889 12.0209817,18.8625771 12.1494248,18.9141304 L12.6446057,19.1128815 C12.8412735,19.1918182 12.9367134,19.4152397 12.8577767,19.6119075 C12.8536803,19.6221134 12.8491471,19.6321385 12.8441896,19.641955 L11.8765277,21.5580419 C11.7809962,21.7472057 11.5502051,21.8231097 11.3610413,21.7275782 C11.3516138,21.7228172 11.342387,21.7176689 11.3333842,21.7121466 L9.84992371,20.8021854 C9.72197255,20.7236995 9.56000474,20.7270291 9.43538715,20.8107069 L8.14067217,21.6800782 C7.96473738,21.7982143 7.72634577,21.7513593 7.60820962,21.5754245 C7.59713389,21.5589299 7.58735599,21.5416 7.57896414,21.5235911 L6.70673344,19.6517891 C6.61722406,19.4597025 6.70037934,19.2314238 6.89246597,19.1419144 C6.90366661,19.1366951 6.91511285,19.1320199 6.92676465,19.1279051 L7.54226745,18.9105434 C7.6806099,18.8616884 7.83470082,18.8959967 7.93924759,18.9989307 Z" id="路径-11" stroke="#E960BF" stroke-width="0.383711328" fill="#FFFFFF"></path>
                            <line x1="6.65377338" y1="19.6554648" x2="8.99911394" y2="25.3107801" id="直线-3" stroke="#E960BF" stroke-width="0.383711328" stroke-linecap="round"></line>
                            <line x1="10.2824021" y1="19.8213161" x2="12.9660029" y2="25.4602608" id="直线-3-copy" stroke="#E960BF" stroke-width="0.383711328" stroke-linecap="round" transform="translate(11.6935, 22.5579) scale(1, -1) translate(-11.6935, -22.5579)"></line>
                            <polygon id="路径-12" fill="#696969" points="8.87126871 21.2537103 9.39512959 22.0745026 8.78285012 24.3945842 9.08340627 25.462241 10.3139291 25.462241 10.6484543 24.4884786 10.1849297 22.0745026 10.6855831 21.2814079 9.88434879 20.6229308"></polygon>
                        </g>
                    </g>
                </g>
            </g>
        </g>
    </g>
</svg>